<svg id="SvgjsSvg1001" width="288" height="288" xmlns="http://www.w3.org/2000/svg" version="1.1" xmlns:xlink="http://www.w3.org/1999/xlink" xmlns:svgjs="http://svgjs.com/svgjs"><defs id="SvgjsDefs1002"></defs><g id="SvgjsG1008"><svg xmlns="http://www.w3.org/2000/svg" viewBox="0 0 48 48" width="288" height="288"><path style="line-height:normal;text-indent:0;text-align:start;text-decoration-line:none;text-decoration-style:solid;text-decoration-color:#000;text-transform:none;block-progression:tb;isolation:auto;mix-blend-mode:normal" d="M24 0C10.751 0 0 10.751 0 24s10.751 24 24 24 24-10.751 24-24S37.249 0 24 0zm0 1c12.708 0 23 10.291 23 23S36.708 47 24 47 1 36.709 1 24 11.292 1 24 1zM11.51 9.975a.5.5 0 0 0-.492.505v26.87a.5.5 0 0 0 .142.498.5.5 0 0 0 .488.134h26.87a.5.5 0 1 0 0-1h-26.5V10.48a.5.5 0 0 0-.508-.505zm26.015 6.021V16c-.822 0-1.5.677-1.5 1.5 0 .258.073.496.19.709L29.1 26.115a1.474 1.474 0 0 0-1.217.035L26.62 24.89c.408-.99.528-2.107.236-3.215-.704-2.676-3.443-4.267-6.103-3.541-2.66.725-4.25 3.498-3.545 6.174a4.942 4.942 0 0 0 1.172 2.097l-3.137 2.79a1.473 1.473 0 0 0-.719-.194c-.822 0-1.5.677-1.5 1.5s.678 1.5 1.5 1.5c.823 0 1.5-.677 1.5-1.5a1.48 1.48 0 0 0-.113-.563l3.223-2.865a4.95 4.95 0 0 0 2.183.903l.428 1.627a.5.5 0 0 0 .615.355l.02-.01 1.316 5.006A1.476 1.476 0 0 0 25.5 35.99a.5.5 0 0 0 .002 0 1.492 1.492 0 0 0 1.047-1.806l-.38-1.436-.196-.748-.23-.883-.274-1.039-.239-.906a.5.5 0 0 0 .348-.608l-.437-1.664a5.04 5.04 0 0 0 .984-1.097l1.053 1.052a1.475 1.475 0 0 0-.153.641c0 .823.678 1.5 1.5 1.5.823 0 1.5-.677 1.5-1.5 0-.257-.073-.498-.19-.71l7.118-7.907c.177.074.37.117.572.117.823 0 1.5-.677 1.5-1.5 0-.822-.677-1.5-1.5-1.5zm0 1.004c.282 0 .5.218.5.5 0 .282-.218.5-.5.5a.493.493 0 0 1-.5-.5c0-.282.218-.5.5-.5zM21.81 18.965a3.966 3.966 0 0 1 4.084 2.973 4.046 4.046 0 0 1-.041 2.181l-.979-.978c.094-.196.152-.41.152-.641 0-.823-.677-1.5-1.5-1.5-.822 0-1.5.677-1.5 1.5 0 .2.042.388.114.563l-3.014 2.68a3.986 3.986 0 0 1-.951-1.7c-.568-2.156.7-4.36 2.836-4.943.267-.073.533-.118.799-.135zM23.525 22c.282 0 .5.218.5.5 0 .282-.218.5-.5.5a.492.492 0 0 1-.33-.129.5.5 0 0 0-.058-.066.493.493 0 0 1 .389-.805zm-.716 1.807c.214.118.456.193.716.193.23 0 .446-.058.641-.152l1.252 1.252a4.002 4.002 0 0 1-2.361 1.783 3.923 3.923 0 0 1-3.16-.487l2.912-2.59zM28.525 27c.282 0 .5.218.5.5 0 .282-.218.5-.5.5a.493.493 0 0 1-.5-.5c0-.282.218-.5.5-.5zm-4.265.484.224.86-1.9.515-.223-.85c.316-.022.635-.073.951-.16.333-.09.651-.214.948-.365zm.006 1.955.236.899.273 1.039.23.88.198.749.379 1.437a.474.474 0 0 1-.342.584.45.45 0 0 1-.576-.326l-1.318-5.012.92-.25zm-9.74.561c.14 0 .265.053.355.143.09.09.144.216.144.357 0 .282-.218.5-.5.5a.493.493 0 0 1-.5-.5c0-.282.218-.5.5-.5z" color="#000" font-family="sans-serif" font-weight="400" overflow="visible" fill="#ffffff" class="color000 svgShape"></path></svg></g></svg>